<svg xmlns="http://www.w3.org/2000/svg" width="3200" height="1800" viewBox="0 0 1600 900">
  <metadata>
    grinding | shape | base dot | ascii8 | SHA-256
    gutter | 12-bit RGB | frame 1524 of 3322 @ 30fps
    easing inOutCubic | timeScale 1 | salt 0
    arc | 3 matches | counter 32577292 | 615243fcb9eeb16dd748c8ceb6bd02b1bb3cd0ceecb47bd981d1fffb2494109e
    line | 3 matches | counter 212676616 | 4c694e45a0147dd72669a42ba59e0798cfd5da42a685b950a2cb92d483b1ea68
    curve | 5 matches | counter 57587388742 | 4375727665368d5bd990a68edb31038bf946f77c89b15a6c42ee58d60b95e88e
    plane | 5 matches | counter 26240654802 | 506c414e657f9d1c858e5f92a55027fee93b9ea398db28582d238352dafd2718
    circle | 6 matches | counter 17462925586097 | 434952636c45513c5e3dc3955fc5b925034e39e2f2273c29bec2b7e028dfc397
    square | 6 matches | counter 525004951628 | 537155415265d6a6b005b35e7a654ac597273750ad08b26b5b2e9c8b07542f24
    star | 3 matches | counter 28294652 | 537441720fe4be7091bd0915582f58dcff3b9c7a21d59074c39884b9b62d92d5
    spiral | 6 matches | counter 3692920018774 | 73706952414c30b8f6bd2057949a70994d0779e8077217040c17ffda6c0f5872
    dot | 3 matches | counter 33532192 | 646f54162e717dd7053053770e18698346316dc68a73bdb791aafd20f2839c8d
  </metadata>
  <rect width="1600" height="900" fill="#ffffff"/>
  <line fill="none" stroke="#e4e2dc" stroke-width="1" x1="380" y1="32" x2="380" y2="836"/>
  <line fill="none" stroke="#e4e2dc" stroke-width="1" x1="144" y1="32" x2="144" y2="836"/>
  <line fill="none" stroke="#e4e2dc" stroke-width="1" x1="20" y1="123.2" x2="1580" y2="123.2"/>
  <line fill="none" stroke="#e4e2dc" stroke-width="1" x1="20" y1="202.4" x2="1580" y2="202.4"/>
  <line fill="none" stroke="#e4e2dc" stroke-width="1" x1="20" y1="281.6" x2="1580" y2="281.6"/>
  <line fill="none" stroke="#e4e2dc" stroke-width="1" x1="20" y1="360.8" x2="1580" y2="360.8"/>
  <line fill="none" stroke="#e4e2dc" stroke-width="1" x1="20" y1="440" x2="1580" y2="440"/>
  <line fill="none" stroke="#e4e2dc" stroke-width="1" x1="20" y1="519.2" x2="1580" y2="519.2"/>
  <line fill="none" stroke="#e4e2dc" stroke-width="1" x1="20" y1="598.4" x2="1580" y2="598.4"/>
  <line fill="none" stroke="#e4e2dc" stroke-width="1" x1="20" y1="677.6" x2="1580" y2="677.6"/>
  <line fill="none" stroke="#e4e2dc" stroke-width="1" x1="20" y1="756.8" x2="1580" y2="756.8"/>
  <rect x="794" y="56.46" width="54.29" height="54.29" fill="none" stroke="#d5d2cb" stroke-width="1"/>
  <rect x="850.29" y="56.46" width="54.29" height="54.29" fill="none" stroke="#d5d2cb" stroke-width="1"/>
  <rect x="906.57" y="56.46" width="54.29" height="54.29" fill="none" stroke="#d5d2cb" stroke-width="1"/>
  <rect x="962.86" y="56.46" width="54.29" height="54.29" fill="none" stroke="#d5d2cb" stroke-width="1"/>
  <rect x="1019.14" y="56.46" width="54.29" height="54.29" fill="none" stroke="#d5d2cb" stroke-width="1"/>
  <rect x="1075.43" y="56.46" width="54.29" height="54.29" fill="none" stroke="#d5d2cb" stroke-width="1"/>
  <rect x="1131.71" y="56.46" width="54.29" height="54.29" fill="none" stroke="#d5d2cb" stroke-width="1"/>
  <rect x="1188" y="56.46" width="54.29" height="54.29" fill="none" stroke="#d5d2cb" stroke-width="1"/>
  <rect x="1244.29" y="56.46" width="54.29" height="54.29" fill="none" stroke="#d5d2cb" stroke-width="1"/>
  <rect x="1300.57" y="56.46" width="54.29" height="54.29" fill="none" stroke="#d5d2cb" stroke-width="1"/>
  <rect x="1356.86" y="56.46" width="54.29" height="54.29" fill="none" stroke="#d5d2cb" stroke-width="1"/>
  <rect x="1413.14" y="56.46" width="54.29" height="54.29" fill="none" stroke="#d5d2cb" stroke-width="1"/>
  <rect x="1469.43" y="56.46" width="54.29" height="54.29" fill="none" stroke="#d5d2cb" stroke-width="1"/>
  <rect x="1525.71" y="56.46" width="54.29" height="54.29" fill="none" stroke="#d5d2cb" stroke-width="1"/>
  <rect x="400" y="56.46" width="54.29" height="54.29" fill="none" stroke="#d0281e" stroke-width="3"/>
  <rect x="456.29" y="56.46" width="54.29" height="54.29" fill="none" stroke="#d0281e" stroke-width="3"/>
  <rect x="400" y="135.66" width="54.29" height="54.29" fill="none" stroke="#d0281e" stroke-width="3"/>
  <rect x="456.29" y="135.66" width="54.29" height="54.29" fill="none" stroke="#d0281e" stroke-width="3"/>
  <rect x="400" y="214.86" width="54.29" height="54.29" fill="none" stroke="#d0281e" stroke-width="3"/>
  <rect x="456.29" y="214.86" width="54.29" height="54.29" fill="none" stroke="#d0281e" stroke-width="3"/>
  <rect x="512.57" y="214.86" width="54.29" height="54.29" fill="none" stroke="#d0281e" stroke-width="3"/>
  <rect x="400" y="294.06" width="54.29" height="54.29" fill="none" stroke="#d0281e" stroke-width="3"/>
  <rect x="456.29" y="294.06" width="54.29" height="54.29" fill="none" stroke="#d0281e" stroke-width="3"/>
  <rect x="512.57" y="294.06" width="54.29" height="54.29" fill="none" stroke="#d0281e" stroke-width="3"/>
  <rect x="568.86" y="294.06" width="54.29" height="54.29" fill="none" stroke="#d0281e" stroke-width="3"/>
  <rect x="400" y="373.26" width="54.29" height="54.29" fill="none" stroke="#d0281e" stroke-width="3"/>
  <rect x="456.29" y="373.26" width="54.29" height="54.29" fill="none" stroke="#d0281e" stroke-width="3"/>
  <rect x="512.57" y="373.26" width="54.29" height="54.29" fill="none" stroke="#d0281e" stroke-width="3"/>
  <rect x="568.86" y="373.26" width="54.29" height="54.29" fill="none" stroke="#d0281e" stroke-width="3"/>
  <rect x="400" y="452.46" width="54.29" height="54.29" fill="none" stroke="#d0281e" stroke-width="3"/>
  <rect x="456.29" y="452.46" width="54.29" height="54.29" fill="none" stroke="#d0281e" stroke-width="3"/>
  <rect x="512.57" y="452.46" width="54.29" height="54.29" fill="none" stroke="#d0281e" stroke-width="3"/>
  <rect x="568.86" y="452.46" width="54.29" height="54.29" fill="none" stroke="#d0281e" stroke-width="3"/>
  <rect x="400" y="531.66" width="54.29" height="54.29" fill="none" stroke="#d0281e" stroke-width="3"/>
  <rect x="456.29" y="531.66" width="54.29" height="54.29" fill="none" stroke="#d0281e" stroke-width="3"/>
  <rect x="512.57" y="531.66" width="54.29" height="54.29" fill="none" stroke="#d0281e" stroke-width="3"/>
  <rect x="568.86" y="531.66" width="54.29" height="54.29" fill="none" stroke="#d0281e" stroke-width="3"/>
  <rect x="400" y="610.86" width="54.29" height="54.29" fill="none" stroke="#d0281e" stroke-width="3"/>
  <rect x="456.29" y="610.86" width="54.29" height="54.29" fill="none" stroke="#d0281e" stroke-width="3"/>
  <rect x="512.57" y="610.86" width="54.29" height="54.29" fill="none" stroke="#d0281e" stroke-width="3"/>
  <rect x="400" y="690.06" width="54.29" height="54.29" fill="none" stroke="#d0281e" stroke-width="3"/>
  <rect x="456.29" y="690.06" width="54.29" height="54.29" fill="none" stroke="#d0281e" stroke-width="3"/>
  <rect x="512.57" y="690.06" width="54.29" height="54.29" fill="none" stroke="#d0281e" stroke-width="3"/>
  <rect x="568.86" y="690.06" width="54.29" height="54.29" fill="none" stroke="#d0281e" stroke-width="3"/>
  <rect x="400" y="769.26" width="54.29" height="54.29" fill="none" stroke="#d0281e" stroke-width="3"/>
  <rect x="456.29" y="769.26" width="54.29" height="54.29" fill="none" stroke="#d0281e" stroke-width="3"/>
  <rect x="400" y="56.46" width="54.29" height="54.29" fill="#684968" stroke="none" stroke-width="1"/>
  <rect x="456.29" y="56.46" width="54.29" height="54.29" fill="#f57849" stroke="none" stroke-width="1"/>
  <rect x="512.57" y="56.46" width="54.29" height="54.29" fill="#0a0a0a" stroke="none" stroke-width="1"/>
  <rect x="568.86" y="56.46" width="54.29" height="54.29" fill="#0a0a0a" stroke="none" stroke-width="1"/>
  <rect x="625.14" y="56.46" width="54.29" height="54.29" fill="#0a0a0a" stroke="none" stroke-width="1"/>
  <rect x="681.43" y="56.46" width="54.29" height="54.29" fill="#0a0a0a" stroke="none" stroke-width="1"/>
  <rect x="737.71" y="56.46" width="54.29" height="54.29" fill="#0a0a0a" stroke="none" stroke-width="1"/>
  <rect x="400" y="135.66" width="54.29" height="54.29" fill="#681a58" stroke="none" stroke-width="1"/>
  <rect x="456.29" y="135.66" width="54.29" height="54.29" fill="#294939" stroke="none" stroke-width="1"/>
  <rect x="512.57" y="135.66" width="54.29" height="54.29" fill="#f5c6b6" stroke="none" stroke-width="1"/>
  <rect x="568.86" y="135.66" width="54.29" height="54.29" fill="#97e5e5" stroke="none" stroke-width="1"/>
  <rect x="625.14" y="135.66" width="54.29" height="54.29" fill="#b61a68" stroke="none" stroke-width="1"/>
  <rect x="681.43" y="135.66" width="54.29" height="54.29" fill="#d6d678" stroke="none" stroke-width="1"/>
  <rect x="737.71" y="135.66" width="54.29" height="54.29" fill="#4987c6" stroke="none" stroke-width="1"/>
  <rect x="794" y="135.66" width="54.29" height="54.29" fill="#87c6e5" stroke="none" stroke-width="1"/>
  <rect x="850.29" y="135.66" width="54.29" height="54.29" fill="#b668b6" stroke="none" stroke-width="1"/>
  <rect x="906.57" y="135.66" width="54.29" height="54.29" fill="#d60a29" stroke="none" stroke-width="1"/>
  <rect x="962.86" y="135.66" width="54.29" height="54.29" fill="#b61ab6" stroke="none" stroke-width="1"/>
  <rect x="1019.14" y="135.66" width="54.29" height="54.29" fill="#b639c6" stroke="none" stroke-width="1"/>
  <rect x="1075.43" y="135.66" width="54.29" height="54.29" fill="#d60ac6" stroke="none" stroke-width="1"/>
  <rect x="1131.71" y="135.66" width="54.29" height="54.29" fill="#e5e5c6" stroke="none" stroke-width="1"/>
  <rect x="1188" y="135.66" width="54.29" height="54.29" fill="#b64978" stroke="none" stroke-width="1"/>
  <rect x="1244.29" y="135.66" width="54.29" height="54.29" fill="#b6d697" stroke="none" stroke-width="1"/>
  <rect x="1300.57" y="135.66" width="54.29" height="54.29" fill="#871ad6" stroke="none" stroke-width="1"/>
  <rect x="1356.86" y="135.66" width="54.29" height="54.29" fill="#1af5f5" stroke="none" stroke-width="1"/>
  <rect x="1413.14" y="135.66" width="54.29" height="54.29" fill="#f5b629" stroke="none" stroke-width="1"/>
  <rect x="1469.43" y="135.66" width="54.29" height="54.29" fill="#499749" stroke="none" stroke-width="1"/>
  <rect x="1525.71" y="135.66" width="54.29" height="54.29" fill="#1a0a97" stroke="none" stroke-width="1"/>
  <rect x="400" y="214.86" width="54.29" height="54.29" fill="#49c668" stroke="none" stroke-width="1"/>
  <rect x="456.29" y="214.86" width="54.29" height="54.29" fill="#9749e5" stroke="none" stroke-width="1"/>
  <rect x="512.57" y="214.86" width="54.29" height="54.29" fill="#4958a7" stroke="none" stroke-width="1"/>
  <rect x="568.86" y="214.86" width="54.29" height="54.29" fill="#0a1a49" stroke="none" stroke-width="1"/>
  <rect x="625.14" y="214.86" width="54.29" height="54.29" fill="#78d6d6" stroke="none" stroke-width="1"/>
  <rect x="681.43" y="214.86" width="54.29" height="54.29" fill="#782968" stroke="none" stroke-width="1"/>
  <rect x="737.71" y="214.86" width="54.29" height="54.29" fill="#6897a7" stroke="none" stroke-width="1"/>
  <rect x="794" y="214.86" width="54.29" height="54.29" fill="#4929b6" stroke="none" stroke-width="1"/>
  <rect x="850.29" y="214.86" width="54.29" height="54.29" fill="#a75897" stroke="none" stroke-width="1"/>
  <rect x="906.57" y="214.86" width="54.29" height="54.29" fill="#e50a78" stroke="none" stroke-width="1"/>
  <rect x="962.86" y="214.86" width="54.29" height="54.29" fill="#9787c6" stroke="none" stroke-width="1"/>
  <rect x="1019.14" y="214.86" width="54.29" height="54.29" fill="#f5d658" stroke="none" stroke-width="1"/>
  <rect x="1075.43" y="214.86" width="54.29" height="54.29" fill="#d6a749" stroke="none" stroke-width="1"/>
  <rect x="1131.71" y="214.86" width="54.29" height="54.29" fill="#29a768" stroke="none" stroke-width="1"/>
  <rect x="1188" y="214.86" width="54.29" height="54.29" fill="#8758b6" stroke="none" stroke-width="1"/>
  <rect x="1244.29" y="214.86" width="54.29" height="54.29" fill="#97580a" stroke="none" stroke-width="1"/>
  <rect x="1300.57" y="214.86" width="54.29" height="54.29" fill="#a729c6" stroke="none" stroke-width="1"/>
  <rect x="1356.86" y="214.86" width="54.29" height="54.29" fill="#b69729" stroke="none" stroke-width="1"/>
  <rect x="1413.14" y="214.86" width="54.29" height="54.29" fill="#d64987" stroke="none" stroke-width="1"/>
  <rect x="1469.43" y="214.86" width="54.29" height="54.29" fill="#39b61a" stroke="none" stroke-width="1"/>
  <rect x="1525.71" y="214.86" width="54.29" height="54.29" fill="#e5a768" stroke="none" stroke-width="1"/>
  <rect x="400" y="294.06" width="54.29" height="54.29" fill="#493978" stroke="none" stroke-width="1"/>
  <rect x="456.29" y="294.06" width="54.29" height="54.29" fill="#587829" stroke="none" stroke-width="1"/>
  <rect x="512.57" y="294.06" width="54.29" height="54.29" fill="#786868" stroke="none" stroke-width="1"/>
  <rect x="568.86" y="294.06" width="54.29" height="54.29" fill="#583968" stroke="none" stroke-width="1"/>
  <rect x="625.14" y="294.06" width="54.29" height="54.29" fill="#87d658" stroke="none" stroke-width="1"/>
  <rect x="681.43" y="294.06" width="54.29" height="54.29" fill="#b6d697" stroke="none" stroke-width="1"/>
  <rect x="737.71" y="294.06" width="54.29" height="54.29" fill="#970aa7" stroke="none" stroke-width="1"/>
  <rect x="794" y="294.06" width="54.29" height="54.29" fill="#6887e5" stroke="none" stroke-width="1"/>
  <rect x="850.29" y="294.06" width="54.29" height="54.29" fill="#d6b639" stroke="none" stroke-width="1"/>
  <rect x="906.57" y="294.06" width="54.29" height="54.29" fill="#1a0a39" stroke="none" stroke-width="1"/>
  <rect x="962.86" y="294.06" width="54.29" height="54.29" fill="#87b6f5" stroke="none" stroke-width="1"/>
  <rect x="1019.14" y="294.06" width="54.29" height="54.29" fill="#974968" stroke="none" stroke-width="1"/>
  <rect x="1075.43" y="294.06" width="54.29" height="54.29" fill="#f57878" stroke="none" stroke-width="1"/>
  <rect x="1131.71" y="294.06" width="54.29" height="54.29" fill="#c68797" stroke="none" stroke-width="1"/>
  <rect x="1188" y="294.06" width="54.29" height="54.29" fill="#b61a58" stroke="none" stroke-width="1"/>
  <rect x="1244.29" y="294.06" width="54.29" height="54.29" fill="#a768c6" stroke="none" stroke-width="1"/>
  <rect x="1300.57" y="294.06" width="54.29" height="54.29" fill="#4929e5" stroke="none" stroke-width="1"/>
  <rect x="1356.86" y="294.06" width="54.29" height="54.29" fill="#e55887" stroke="none" stroke-width="1"/>
  <rect x="1413.14" y="294.06" width="54.29" height="54.29" fill="#d6680a" stroke="none" stroke-width="1"/>
  <rect x="1469.43" y="294.06" width="54.29" height="54.29" fill="#b69758" stroke="none" stroke-width="1"/>
  <rect x="1525.71" y="294.06" width="54.29" height="54.29" fill="#e58787" stroke="none" stroke-width="1"/>
  <rect x="400" y="373.26" width="54.29" height="54.29" fill="#580a68" stroke="none" stroke-width="1"/>
  <rect x="456.29" y="373.26" width="54.29" height="54.29" fill="#c6491a" stroke="none" stroke-width="1"/>
  <rect x="512.57" y="373.26" width="54.29" height="54.29" fill="#49e568" stroke="none" stroke-width="1"/>
  <rect x="568.86" y="373.26" width="54.29" height="54.29" fill="#5878f5" stroke="none" stroke-width="1"/>
  <rect x="625.14" y="373.26" width="54.29" height="54.29" fill="#97d61a" stroke="none" stroke-width="1"/>
  <rect x="681.43" y="373.26" width="54.29" height="54.29" fill="#c68758" stroke="none" stroke-width="1"/>
  <rect x="737.71" y="373.26" width="54.29" height="54.29" fill="#87e558" stroke="none" stroke-width="1"/>
  <rect x="794" y="373.26" width="54.29" height="54.29" fill="#f59729" stroke="none" stroke-width="1"/>
  <rect x="850.29" y="373.26" width="54.29" height="54.29" fill="#a75858" stroke="none" stroke-width="1"/>
  <rect x="906.57" y="373.26" width="54.29" height="54.29" fill="#0a2978" stroke="none" stroke-width="1"/>
  <rect x="962.86" y="373.26" width="54.29" height="54.29" fill="#f5e5e5" stroke="none" stroke-width="1"/>
  <rect x="1019.14" y="373.26" width="54.29" height="54.29" fill="#9739b6" stroke="none" stroke-width="1"/>
  <rect x="1075.43" y="373.26" width="54.29" height="54.29" fill="#97e5a7" stroke="none" stroke-width="1"/>
  <rect x="1131.71" y="373.26" width="54.29" height="54.29" fill="#399787" stroke="none" stroke-width="1"/>
  <rect x="1188" y="373.26" width="54.29" height="54.29" fill="#d6b629" stroke="none" stroke-width="1"/>
  <rect x="1244.29" y="373.26" width="54.29" height="54.29" fill="#875887" stroke="none" stroke-width="1"/>
  <rect x="1300.57" y="373.26" width="54.29" height="54.29" fill="#29d629" stroke="none" stroke-width="1"/>
  <rect x="1356.86" y="373.26" width="54.29" height="54.29" fill="#398739" stroke="none" stroke-width="1"/>
  <rect x="1413.14" y="373.26" width="54.29" height="54.29" fill="#5829d6" stroke="none" stroke-width="1"/>
  <rect x="1469.43" y="373.26" width="54.29" height="54.29" fill="#a7f5d6" stroke="none" stroke-width="1"/>
  <rect x="1525.71" y="373.26" width="54.29" height="54.29" fill="#29781a" stroke="none" stroke-width="1"/>
  <rect x="400" y="452.46" width="54.29" height="54.29" fill="#493949" stroke="none" stroke-width="1"/>
  <rect x="456.29" y="452.46" width="54.29" height="54.29" fill="#975829" stroke="none" stroke-width="1"/>
  <rect x="512.57" y="452.46" width="54.29" height="54.29" fill="#683968" stroke="none" stroke-width="1"/>
  <rect x="568.86" y="452.46" width="54.29" height="54.29" fill="#c64958" stroke="none" stroke-width="1"/>
  <rect x="625.14" y="452.46" width="54.29" height="54.29" fill="#581a39" stroke="none" stroke-width="1"/>
  <rect x="681.43" y="452.46" width="54.29" height="54.29" fill="#c658e5" stroke="none" stroke-width="1"/>
  <rect x="737.71" y="452.46" width="54.29" height="54.29" fill="#39d6c6" stroke="none" stroke-width="1"/>
  <rect x="794" y="452.46" width="54.29" height="54.29" fill="#399758" stroke="none" stroke-width="1"/>
  <rect x="850.29" y="452.46" width="54.29" height="54.29" fill="#58f5c6" stroke="none" stroke-width="1"/>
  <rect x="906.57" y="452.46" width="54.29" height="54.29" fill="#58b697" stroke="none" stroke-width="1"/>
  <rect x="962.86" y="452.46" width="54.29" height="54.29" fill="#29580a" stroke="none" stroke-width="1"/>
  <rect x="1019.14" y="452.46" width="54.29" height="54.29" fill="#3949e5" stroke="none" stroke-width="1"/>
  <rect x="1075.43" y="452.46" width="54.29" height="54.29" fill="#3997e5" stroke="none" stroke-width="1"/>
  <rect x="1131.71" y="452.46" width="54.29" height="54.29" fill="#29f529" stroke="none" stroke-width="1"/>
  <rect x="1188" y="452.46" width="54.29" height="54.29" fill="#297839" stroke="none" stroke-width="1"/>
  <rect x="1244.29" y="452.46" width="54.29" height="54.29" fill="#c62997" stroke="none" stroke-width="1"/>
  <rect x="1300.57" y="452.46" width="54.29" height="54.29" fill="#b6e5c6" stroke="none" stroke-width="1"/>
  <rect x="1356.86" y="452.46" width="54.29" height="54.29" fill="#29b678" stroke="none" stroke-width="1"/>
  <rect x="1413.14" y="452.46" width="54.29" height="54.29" fill="#e50a29" stroke="none" stroke-width="1"/>
  <rect x="1469.43" y="452.46" width="54.29" height="54.29" fill="#87d6f5" stroke="none" stroke-width="1"/>
  <rect x="1525.71" y="452.46" width="54.29" height="54.29" fill="#c63997" stroke="none" stroke-width="1"/>
  <rect x="400" y="531.66" width="54.29" height="54.29" fill="#583978" stroke="none" stroke-width="1"/>
  <rect x="456.29" y="531.66" width="54.29" height="54.29" fill="#1a5858" stroke="none" stroke-width="1"/>
  <rect x="512.57" y="531.66" width="54.29" height="54.29" fill="#491a58" stroke="none" stroke-width="1"/>
  <rect x="568.86" y="531.66" width="54.29" height="54.29" fill="#296858" stroke="none" stroke-width="1"/>
  <rect x="625.14" y="531.66" width="54.29" height="54.29" fill="#d668a7" stroke="none" stroke-width="1"/>
  <rect x="681.43" y="531.66" width="54.29" height="54.29" fill="#68b60a" stroke="none" stroke-width="1"/>
  <rect x="737.71" y="531.66" width="54.29" height="54.29" fill="#0a58b6" stroke="none" stroke-width="1"/>
  <rect x="794" y="531.66" width="54.29" height="54.29" fill="#3958e5" stroke="none" stroke-width="1"/>
  <rect x="850.29" y="531.66" width="54.29" height="54.29" fill="#78a768" stroke="none" stroke-width="1"/>
  <rect x="906.57" y="531.66" width="54.29" height="54.29" fill="#5849a7" stroke="none" stroke-width="1"/>
  <rect x="962.86" y="531.66" width="54.29" height="54.29" fill="#c65897" stroke="none" stroke-width="1"/>
  <rect x="1019.14" y="531.66" width="54.29" height="54.29" fill="#782978" stroke="none" stroke-width="1"/>
  <rect x="1075.43" y="531.66" width="54.29" height="54.29" fill="#397858" stroke="none" stroke-width="1"/>
  <rect x="1131.71" y="531.66" width="54.29" height="54.29" fill="#0aa7d6" stroke="none" stroke-width="1"/>
  <rect x="1188" y="531.66" width="54.29" height="54.29" fill="#0a87b6" stroke="none" stroke-width="1"/>
  <rect x="1244.29" y="531.66" width="54.29" height="54.29" fill="#2968b6" stroke="none" stroke-width="1"/>
  <rect x="1300.57" y="531.66" width="54.29" height="54.29" fill="#58b629" stroke="none" stroke-width="1"/>
  <rect x="1356.86" y="531.66" width="54.29" height="54.29" fill="#e597c6" stroke="none" stroke-width="1"/>
  <rect x="1413.14" y="531.66" width="54.29" height="54.29" fill="#87b60a" stroke="none" stroke-width="1"/>
  <rect x="1469.43" y="531.66" width="54.29" height="54.29" fill="#785849" stroke="none" stroke-width="1"/>
  <rect x="1525.71" y="531.66" width="54.29" height="54.29" fill="#29f529" stroke="none" stroke-width="1"/>
  <rect x="400" y="610.86" width="54.29" height="54.29" fill="#583978" stroke="none" stroke-width="1"/>
  <rect x="456.29" y="610.86" width="54.29" height="54.29" fill="#49491a" stroke="none" stroke-width="1"/>
  <rect x="512.57" y="610.86" width="54.29" height="54.29" fill="#78290a" stroke="none" stroke-width="1"/>
  <rect x="568.86" y="610.86" width="54.29" height="54.29" fill="#f5e549" stroke="none" stroke-width="1"/>
  <rect x="625.14" y="610.86" width="54.29" height="54.29" fill="#b6e578" stroke="none" stroke-width="1"/>
  <rect x="681.43" y="610.86" width="54.29" height="54.29" fill="#0a971a" stroke="none" stroke-width="1"/>
  <rect x="737.71" y="610.86" width="54.29" height="54.29" fill="#b6d60a" stroke="none" stroke-width="1"/>
  <rect x="794" y="610.86" width="54.29" height="54.29" fill="#971a58" stroke="none" stroke-width="1"/>
  <rect x="850.29" y="610.86" width="54.29" height="54.29" fill="#588729" stroke="none" stroke-width="1"/>
  <rect x="906.57" y="610.86" width="54.29" height="54.29" fill="#f55887" stroke="none" stroke-width="1"/>
  <rect x="962.86" y="610.86" width="54.29" height="54.29" fill="#d6c6f5" stroke="none" stroke-width="1"/>
  <rect x="1019.14" y="610.86" width="54.29" height="54.29" fill="#f539b6" stroke="none" stroke-width="1"/>
  <rect x="1075.43" y="610.86" width="54.29" height="54.29" fill="#97c678" stroke="none" stroke-width="1"/>
  <rect x="1131.71" y="610.86" width="54.29" height="54.29" fill="#a7291a" stroke="none" stroke-width="1"/>
  <rect x="1188" y="610.86" width="54.29" height="54.29" fill="#d65897" stroke="none" stroke-width="1"/>
  <rect x="1244.29" y="610.86" width="54.29" height="54.29" fill="#0a7849" stroke="none" stroke-width="1"/>
  <rect x="1300.57" y="610.86" width="54.29" height="54.29" fill="#c63997" stroke="none" stroke-width="1"/>
  <rect x="1356.86" y="610.86" width="54.29" height="54.29" fill="#878749" stroke="none" stroke-width="1"/>
  <rect x="1413.14" y="610.86" width="54.29" height="54.29" fill="#b697b6" stroke="none" stroke-width="1"/>
  <rect x="1469.43" y="610.86" width="54.29" height="54.29" fill="#6829d6" stroke="none" stroke-width="1"/>
  <rect x="1525.71" y="610.86" width="54.29" height="54.29" fill="#9729d6" stroke="none" stroke-width="1"/>
  <rect x="400" y="690.06" width="54.29" height="54.29" fill="#783978" stroke="none" stroke-width="1"/>
  <rect x="456.29" y="690.06" width="54.29" height="54.29" fill="#0a6897" stroke="none" stroke-width="1"/>
  <rect x="512.57" y="690.06" width="54.29" height="54.29" fill="#582949" stroke="none" stroke-width="1"/>
  <rect x="568.86" y="690.06" width="54.29" height="54.29" fill="#1a49c6" stroke="none" stroke-width="1"/>
  <rect x="625.14" y="690.06" width="54.29" height="54.29" fill="#390ab6" stroke="none" stroke-width="1"/>
  <rect x="681.43" y="690.06" width="54.29" height="54.29" fill="#87f568" stroke="none" stroke-width="1"/>
  <rect x="737.71" y="690.06" width="54.29" height="54.29" fill="#b6d629" stroke="none" stroke-width="1"/>
  <rect x="794" y="690.06" width="54.29" height="54.29" fill="#0a5878" stroke="none" stroke-width="1"/>
  <rect x="850.29" y="690.06" width="54.29" height="54.29" fill="#974997" stroke="none" stroke-width="1"/>
  <rect x="906.57" y="690.06" width="54.29" height="54.29" fill="#a7780a" stroke="none" stroke-width="1"/>
  <rect x="962.86" y="690.06" width="54.29" height="54.29" fill="#979749" stroke="none" stroke-width="1"/>
  <rect x="1019.14" y="690.06" width="54.29" height="54.29" fill="#d60a78" stroke="none" stroke-width="1"/>
  <rect x="1075.43" y="690.06" width="54.29" height="54.29" fill="#7897e5" stroke="none" stroke-width="1"/>
  <rect x="1131.71" y="690.06" width="54.29" height="54.29" fill="#870a78" stroke="none" stroke-width="1"/>
  <rect x="1188" y="690.06" width="54.29" height="54.29" fill="#78291a" stroke="none" stroke-width="1"/>
  <rect x="1244.29" y="690.06" width="54.29" height="54.29" fill="#780a49" stroke="none" stroke-width="1"/>
  <rect x="1300.57" y="690.06" width="54.29" height="54.29" fill="#0ac61a" stroke="none" stroke-width="1"/>
  <rect x="1356.86" y="690.06" width="54.29" height="54.29" fill="#78f5f5" stroke="none" stroke-width="1"/>
  <rect x="1413.14" y="690.06" width="54.29" height="54.29" fill="#d6a768" stroke="none" stroke-width="1"/>
  <rect x="1469.43" y="690.06" width="54.29" height="54.29" fill="#c60af5" stroke="none" stroke-width="1"/>
  <rect x="1525.71" y="690.06" width="54.29" height="54.29" fill="#588778" stroke="none" stroke-width="1"/>
  <rect x="400" y="769.26" width="54.29" height="54.29" fill="#684968" stroke="none" stroke-width="1"/>
  <rect x="456.29" y="769.26" width="54.29" height="54.29" fill="#f55849" stroke="none" stroke-width="1"/>
  <rect x="512.57" y="769.26" width="54.29" height="54.29" fill="#1a6829" stroke="none" stroke-width="1"/>
  <rect x="568.86" y="769.26" width="54.29" height="54.29" fill="#e5781a" stroke="none" stroke-width="1"/>
  <rect x="625.14" y="769.26" width="54.29" height="54.29" fill="#78d6d6" stroke="none" stroke-width="1"/>
  <rect x="681.43" y="769.26" width="54.29" height="54.29" fill="#780a58" stroke="none" stroke-width="1"/>
  <rect x="737.71" y="769.26" width="54.29" height="54.29" fill="#390a58" stroke="none" stroke-width="1"/>
  <rect x="794" y="769.26" width="54.29" height="54.29" fill="#397878" stroke="none" stroke-width="1"/>
  <rect x="850.29" y="769.26" width="54.29" height="54.29" fill="#0ae51a" stroke="none" stroke-width="1"/>
  <rect x="906.57" y="769.26" width="54.29" height="54.29" fill="#876897" stroke="none" stroke-width="1"/>
  <rect x="962.86" y="769.26" width="54.29" height="54.29" fill="#873949" stroke="none" stroke-width="1"/>
  <rect x="1019.14" y="769.26" width="54.29" height="54.29" fill="#68391a" stroke="none" stroke-width="1"/>
  <rect x="1075.43" y="769.26" width="54.29" height="54.29" fill="#68d6c6" stroke="none" stroke-width="1"/>
  <rect x="1131.71" y="769.26" width="54.29" height="54.29" fill="#6887a7" stroke="none" stroke-width="1"/>
  <rect x="1188" y="769.26" width="54.29" height="54.29" fill="#7839b6" stroke="none" stroke-width="1"/>
  <rect x="1244.29" y="769.26" width="54.29" height="54.29" fill="#d6b678" stroke="none" stroke-width="1"/>
  <rect x="1300.57" y="769.26" width="54.29" height="54.29" fill="#971aa7" stroke="none" stroke-width="1"/>
  <rect x="1356.86" y="769.26" width="54.29" height="54.29" fill="#a7f5d6" stroke="none" stroke-width="1"/>
  <rect x="1413.14" y="769.26" width="54.29" height="54.29" fill="#290af5" stroke="none" stroke-width="1"/>
  <rect x="1469.43" y="769.26" width="54.29" height="54.29" fill="#298739" stroke="none" stroke-width="1"/>
  <rect x="1525.71" y="769.26" width="54.29" height="54.29" fill="#97c687" stroke="none" stroke-width="1"/>
  <text x="120" y="91.28" text-anchor="end" font-size="24" font-family="Helvetica Neue, Helvetica, sans-serif"><tspan fill="#16161a">dot</tspan></text>
  <text x="356" y="91.28" text-anchor="end" font-size="18" font-family="ui-monospace, Menlo, Consolas, monospace"><tspan fill="#16161a">0</tspan></text>
  <text x="120" y="170.48" text-anchor="end" font-size="24" font-family="Helvetica Neue, Helvetica, sans-serif"><tspan fill="#16161a">arc</tspan><tspan fill="#d5d2cb"></tspan></text>
  <text x="356" y="170.48" text-anchor="end" font-size="18" font-family="ui-monospace, Menlo, Consolas, monospace" fill="#16161a">32,577,292</text>
  <text x="120" y="249.68" text-anchor="end" font-size="24" font-family="Helvetica Neue, Helvetica, sans-serif"><tspan fill="#16161a">line</tspan><tspan fill="#d5d2cb"></tspan></text>
  <text x="356" y="249.68" text-anchor="end" font-size="18" font-family="ui-monospace, Menlo, Consolas, monospace" fill="#16161a">212,676,616</text>
  <text x="120" y="328.88" text-anchor="end" font-size="24" font-family="Helvetica Neue, Helvetica, sans-serif"><tspan fill="#16161a">curve</tspan><tspan fill="#d5d2cb"></tspan></text>
  <text x="356" y="328.88" text-anchor="end" font-size="18" font-family="ui-monospace, Menlo, Consolas, monospace" fill="#16161a">57,587,388,742</text>
  <text x="120" y="408.08" text-anchor="end" font-size="24" font-family="Helvetica Neue, Helvetica, sans-serif"><tspan fill="#16161a">plane</tspan><tspan fill="#d5d2cb"></tspan></text>
  <text x="356" y="408.08" text-anchor="end" font-size="18" font-family="ui-monospace, Menlo, Consolas, monospace" fill="#16161a">26,240,654,802</text>
  <text x="120" y="487.28" text-anchor="end" font-size="24" font-family="Helvetica Neue, Helvetica, sans-serif"><tspan fill="#16161a">circle</tspan><tspan fill="#d5d2cb"></tspan></text>
  <text x="356" y="487.28" text-anchor="end" font-size="18" font-family="ui-monospace, Menlo, Consolas, monospace" fill="#16161a">17,462,925,586,097</text>
  <text x="120" y="566.48" text-anchor="end" font-size="24" font-family="Helvetica Neue, Helvetica, sans-serif"><tspan fill="#16161a">square</tspan><tspan fill="#d5d2cb"></tspan></text>
  <text x="356" y="566.48" text-anchor="end" font-size="18" font-family="ui-monospace, Menlo, Consolas, monospace" fill="#16161a">525,004,951,628</text>
  <text x="120" y="645.68" text-anchor="end" font-size="24" font-family="Helvetica Neue, Helvetica, sans-serif"><tspan fill="#16161a">star</tspan><tspan fill="#d5d2cb"></tspan></text>
  <text x="356" y="645.68" text-anchor="end" font-size="18" font-family="ui-monospace, Menlo, Consolas, monospace" fill="#16161a">28,294,652</text>
  <text x="120" y="724.88" text-anchor="end" font-size="24" font-family="Helvetica Neue, Helvetica, sans-serif"><tspan fill="#16161a">spiral</tspan><tspan fill="#d5d2cb"></tspan></text>
  <text x="356" y="724.88" text-anchor="end" font-size="18" font-family="ui-monospace, Menlo, Consolas, monospace" fill="#16161a">3,692,920,018,774</text>
  <text x="120" y="804.08" text-anchor="end" font-size="24" font-family="Helvetica Neue, Helvetica, sans-serif"><tspan fill="#16161a">dot</tspan><tspan fill="#d5d2cb"></tspan></text>
  <text x="356" y="804.08" text-anchor="end" font-size="18" font-family="ui-monospace, Menlo, Consolas, monospace" fill="#16161a">33,532,192</text>
</svg>
